<?xml version="1.0" encoding="utf-8"?>
<!-- Generator: Adobe Illustrator 16.0.0, SVG Export Plug-In . SVG Version: 6.00 Build 0)  -->
<!DOCTYPE svg PUBLIC "-//W3C//DTD SVG 1.1//EN" "http://www.w3.org/Graphics/SVG/1.1/DTD/svg11.dtd">
<svg version="1.1" id="Layer_1" xmlns="http://www.w3.org/2000/svg" xmlns:xlink="http://www.w3.org/1999/xlink" x="0px" y="0px"
	 width="72px" height="72px" viewBox="0 0 72 72" enable-background="new 0 0 72 72" xml:space="preserve">
<g id="Layer_2">
</g>
<g>
	<defs>
		<circle id="SVGID_1_" cx="36" cy="36" r="36"/>
	</defs>
	<clipPath id="SVGID_2_">
		<use xlink:href="#SVGID_1_"  overflow="visible"/>
	</clipPath>
	<path clip-path="url(#SVGID_2_)" fill="#D3D3D3" d="M29.428,36.305c0.486,2.905-0.507,5.493-2.217,5.779
		c-1.711,0.285-3.49-1.838-3.977-4.743c-0.485-2.905-0.444-5.426,2.217-5.778C27.171,31.335,28.943,33.399,29.428,36.305z"/>
	<path clip-path="url(#SVGID_2_)" fill="#C1C1C1" d="M63.196,76.395C62.86,77.552,47.231,87.17,36,86.797
		C24.767,87.17,9.139,77.552,8.803,76.395c-0.511-1.818,1.195-11.618,2.752-15.666c1.557-4.047,5.865-6.749,11.88-9.239
		c6.027-2.491,6.114-3.736,6.114-3.736L36,48.302l6.45-0.549c0,0,0.088,1.245,6.114,3.736c6.015,2.49,10.323,5.192,11.88,9.239
		C62.001,64.776,63.708,74.576,63.196,76.395z"/>
	<g clip-path="url(#SVGID_2_)">
		<path fill="#D3D3D3" d="M42.571,36.305c-0.486,2.905,0.506,5.493,2.217,5.779c1.711,0.285,3.49-1.838,3.977-4.743
			s0.444-5.426-2.217-5.778C44.829,31.335,43.058,33.399,42.571,36.305z"/>
	</g>
	<path clip-path="url(#SVGID_2_)" fill="#DBDBDB" d="M47.827,33.226c0,10.088-5.298,18.265-11.831,18.265
		c-6.534,0-11.83-8.177-11.83-18.265c0-10.086,1.66-16.526,11.83-16.526C46.218,16.699,47.827,23.14,47.827,33.226z"/>
</g>
</svg>
